<?xml version="1.0" standalone="no"?>
<!DOCTYPE svg PUBLIC "-//W3C//DTD SVG 20010904//EN" "http://www.w3.org/TR/2001/REC-SVG-20010904/DTD/svg10.dtd">
<svg version="1.0" xmlns="http://www.w3.org/2000/svg"
     width="700pt" height="700pt" viewBox="0 0 700 700"
     preserveAspectRatio="xMidYMid meet">
  <g transform="translate(0.000000,700.000000) scale(0.100000,-0.100000)"
     fill="#000000" stroke="none">
    <path d="M3330 5600 c-300 -31 -566 -140 -795 -325 -63 -51 -187 -175 -238
    -238 -185 -229 -294 -495 -325 -795 -45 -436 98 -860 395 -1172 298 -312 717
    -460 1158 -415 300 31 566 140 795 325 63 51 187 175 238 238 185 229 294
    495 325 795 45 436 -98 860 -395 1172 -256 268 -603 415 -988 415 -71 0 -143
    -2 -170 -5z m385 -235 c366 -83 655 -372 738 -738 28 -121 28 -319 0 -440
    -83 -366 -372 -655 -738 -738 -121 -28 -319 -28 -440 0 -366 83 -655 372
    -738 738 -28 121 -28 319 0 440 83 366 372 655 738 738 121 28 319 28 440 0z"/>
  </g>
</svg> 